# xmcd
#
# Track frame offsets:
#	150
#	581
#	24628
#	49321
#	71741
#	93065
#	117948
#	139931
#	161825
#	184776
#	208255
#	231037
#	253238
#	277247
#	299136
#	320809
#	337557
#
# Disc length: 4542 seconds
#
# Revision: 0
# Processed by: cddbd v1.5.2PL0 Copyright (c) Steve Scherf et al.
# Submitted via: dBpowerAMP V4.0
#
DISCID=0a11bc11
DTITLE=Majgull Axelsson - Långt borta från Nifelheim
DYEAR=1994
DGENRE=CD-BOK
TTITLE0=10.01
TTITLE1=10.02
TTITLE2=10.03
TTITLE3=10.04
TTITLE4=10.05
TTITLE5=10.06
TTITLE6=10.07
TTITLE7=10.08
TTITLE8=10.09
TTITLE9=10.10
TTITLE10=10.11
TTITLE11=10.12
TTITLE12=10.13
TTITLE13=10.14
TTITLE14=10.15
TTITLE15=10.16
TTITLE16=10.17
EXTD=
EXTT0=
EXTT1=
EXTT2=
EXTT3=
EXTT4=
EXTT5=
EXTT6=
EXTT7=
EXTT8=
EXTT9=
EXTT10=
EXTT11=
EXTT12=
EXTT13=
EXTT14=
EXTT15=
EXTT16=
PLAYORDER=
